<mxfile host="app.diagrams.net" modified="2024-07-23T06:31:39.430Z" agent="Mozilla/5.0 (Macintosh; Intel Mac OS X 10_15_7) AppleWebKit/537.36 (KHTML, like Gecko) Chrome/126.0.0.0 Safari/537.36" etag="Oc1KEHTwBevBy4lCSiAJ" version="24.7.3" type="github">
  <diagram name="第 1 页" id="F5VYigaGw1SXEJX05_Oq">
    <mxGraphModel dx="1434" dy="675" grid="1" gridSize="10" guides="1" tooltips="1" connect="1" arrows="1" fold="1" page="1" pageScale="1" pageWidth="827" pageHeight="1169" math="0" shadow="0">
      <root>
        <mxCell id="0" />
        <mxCell id="1" parent="0" />
        <mxCell id="aSUJhLrz8YBLQvyZwgPZ-1" value="" style="rounded=0;whiteSpace=wrap;html=1;" vertex="1" parent="1">
          <mxGeometry x="130" y="210" width="490" height="120" as="geometry" />
        </mxCell>
        <mxCell id="aSUJhLrz8YBLQvyZwgPZ-2" value="ConfigMap" style="rounded=0;whiteSpace=wrap;html=1;fillColor=#dae8fc;strokeColor=#6c8ebf;" vertex="1" parent="1">
          <mxGeometry x="160" y="260" width="130" height="50" as="geometry" />
        </mxCell>
        <mxCell id="aSUJhLrz8YBLQvyZwgPZ-3" value="Node" style="rounded=0;whiteSpace=wrap;html=1;fillColor=#dae8fc;strokeColor=#6c8ebf;" vertex="1" parent="1">
          <mxGeometry x="310" y="260" width="130" height="50" as="geometry" />
        </mxCell>
        <mxCell id="aSUJhLrz8YBLQvyZwgPZ-4" value="Deploy/RS/RC" style="rounded=0;whiteSpace=wrap;html=1;fillColor=#dae8fc;strokeColor=#6c8ebf;" vertex="1" parent="1">
          <mxGeometry x="460" y="260" width="130" height="50" as="geometry" />
        </mxCell>
      </root>
    </mxGraphModel>
  </diagram>
</mxfile>
